<svg xmlns="http://www.w3.org/2000/svg" width="470.79937744140625" height="352.2841491699219" viewBox="-103.13911437988281 -103.2647476196289 470.79937744140625 352.2841491699219"><title>Neo4j Graph Visualization</title><desc>Created using Neo4j (http://www.neo4j.com/)</desc><g class="layer relationships"><g class="relationship" transform="translate(226.07158080294263 104.50672656522678) rotate(220.55237248689502)"><path class="outline" fill="#A5ABB6" stroke="none" d="M 25 0.5 L 46.85016362968888 0.5 L 46.85016362968888 -0.5 L 25 -0.5 Z M 92.41266362968888 0.5 L 114.26282725937776 0.5 L 114.26282725937776 3.5 L 121.26282725937776 0 L 114.26282725937776 -3.5 L 114.26282725937776 -0.5 L 92.41266362968888 -0.5 Z"/><text text-anchor="middle" pointer-events="none" font-size="8px" fill="#000000" x="69.63141362968888" y="3" transform="rotate(180 69.63141362968888 0)" font-family="sans-serif">ACTED_IN</text></g><g class="relationship" transform="translate(226.07158080294263 104.50672656522678) rotate(433.2480857717343)"><path class="outline" fill="#A5ABB6" stroke="none" d="M 25 0.5 L 34.034813667135495 0.5 L 34.034813667135495 -0.5 L 25 -0.5 Z M 79.5973136671355 0.5 L 88.63212733427099 0.5 L 88.63212733427099 3.5 L 95.63212733427099 0 L 88.63212733427099 -3.5 L 88.63212733427099 -0.5 L 79.5973136671355 -0.5 Z"/><text text-anchor="middle" pointer-events="none" font-size="8px" fill="#000000" x="56.816063667135495" y="3" font-family="sans-serif">ACTED_IN</text></g><g class="relationship" transform="translate(226.07158080294263 104.50672656522678) rotate(371.71801318438287)"><path class="outline" fill="#A5ABB6" stroke="none" d="M 25 0.5 L 31.21129533250039 0.5 L 31.21129533250039 -0.5 L 25 -0.5 Z M 76.77379533250038 0.5 L 82.98509066500078 0.5 L 82.98509066500078 3.5 L 89.98509066500078 0 L 82.98509066500078 -3.5 L 82.98509066500078 -0.5 L 76.77379533250038 -0.5 Z"/><text text-anchor="middle" pointer-events="none" font-size="8px" fill="#000000" x="53.99254533250039" y="3" font-family="sans-serif">ACTED_IN</text></g><g class="relationship" transform="translate(226.07158080294263 104.50672656522678) rotate(205.43231577037182)"><path class="outline" fill="#A5ABB6" stroke="none" d="M 25 0.5 L 26.414321185970707 0.5 L 26.414321185970707 -0.5 L 25 -0.5 Z M 61.75025868597071 0.5 L 63.16457987194141 0.5 L 63.16457987194141 3.5 L 70.16457987194141 0 L 63.16457987194141 -3.5 L 63.16457987194141 -0.5 L 61.75025868597071 -0.5 Z"/><text text-anchor="middle" pointer-events="none" font-size="8px" fill="#000000" x="44.08228993597071" y="3" transform="rotate(180 44.08228993597071 0)" font-family="sans-serif">ACTE…</text></g><g class="relationship" transform="translate(226.07158080294263 104.50672656522678) rotate(240.11992630967399)"><path class="outline" fill="#A5ABB6" stroke="none" d="M 25 0.5 L 25.35562363984358 0.5 L 25.35562363984358 -0.5 L 25 -0.5 Z M 70.91812363984357 0.5 L 71.27374727968716 0.5 L 71.27374727968716 3.5 L 78.27374727968716 0 L 71.27374727968716 -3.5 L 71.27374727968716 -0.5 L 70.91812363984357 -0.5 Z"/><text text-anchor="middle" pointer-events="none" font-size="8px" fill="#000000" x="48.13687363984358" y="3" transform="rotate(180 48.13687363984358 0)" font-family="sans-serif">ACTED_IN</text></g><g class="relationship" transform="translate(202.68357767506697 -65.06182497962955) rotate(499.67559161112183)"><path class="outline" fill="#A5ABB6" stroke="none" d="M 25 0.5 L 31.264058512865354 0.5 L 31.264058512865354 -0.5 L 25 -0.5 Z M 76.82655851286535 0.5 L 83.09061702573071 0.5 L 83.09061702573071 3.5 L 90.09061702573071 0 L 83.09061702573071 -3.5 L 83.09061702573071 -0.5 L 76.82655851286535 -0.5 Z"/><text text-anchor="middle" pointer-events="none" font-size="8px" fill="#000000" x="54.045308512865354" y="3" transform="rotate(180 54.045308512865354 0)" font-family="sans-serif">ACTED_IN</text></g><g class="relationship" transform="translate(202.68357767506697 -65.06182497962955) rotate(475.9219028285904)"><path class="outline" fill="#A5ABB6" stroke="none" d="M 25 0.5 L 45.26754153417316 0.5 L 45.26754153417316 -0.5 L 25 -0.5 Z M 90.83004153417316 0.5 L 111.09758306834632 0.5 L 111.09758306834632 3.5 L 118.09758306834632 0 L 111.09758306834632 -3.5 L 111.09758306834632 -0.5 L 90.83004153417316 -0.5 Z"/><text text-anchor="middle" pointer-events="none" font-size="8px" fill="#000000" x="68.04879153417316" y="3" transform="rotate(180 68.04879153417316 0)" font-family="sans-serif">ACTED_IN</text></g><g class="relationship" transform="translate(202.68357767506697 -65.06182497962955) rotate(469.32417239322865)"><path class="outline" fill="#A5ABB6" stroke="none" d="M 25 0.5 L 26.34361804348577 0.5 L 26.34361804348577 -0.5 L 25 -0.5 Z M 51.45689929348577 0.5 L 52.80051733697154 0.5 L 52.80051733697154 3.5 L 59.80051733697154 0 L 52.80051733697154 -3.5 L 52.80051733697154 -0.5 L 51.45689929348577 -0.5 Z"/><text text-anchor="middle" pointer-events="none" font-size="8px" fill="#000000" x="38.90025866848577" y="3" transform="rotate(180 38.90025866848577 0)" font-family="sans-serif">AC…</text></g><g class="relationship" transform="translate(101.43891107168 -74.26474992613795) rotate(440.83519423647306)"><path class="outline" fill="#A5ABB6" stroke="none" d="M 25 0.5 L 26.324254813137074 0.5 L 26.324254813137074 -0.5 L 25 -0.5 Z M 51.437536063137074 0.5 L 52.76179087627415 0.5 L 52.76179087627415 3.5 L 59.76179087627415 0 L 52.76179087627415 -3.5 L 52.76179087627415 -0.5 L 51.437536063137074 -0.5 Z"/><text text-anchor="middle" pointer-events="none" font-size="8px" fill="#000000" x="38.880895438137074" y="3" font-family="sans-serif">AC…</text></g><g class="relationship" transform="translate(101.43891107168 -74.26474992613795) rotate(434.32802091270605)"><path class="outline" fill="#A5ABB6" stroke="none" d="M 25 0.5 L 45.33286092970866 0.5 L 45.33286092970866 -0.5 L 25 -0.5 Z M 90.89536092970866 0.5 L 111.22822185941732 0.5 L 111.22822185941732 3.5 L 118.22822185941732 0 L 111.22822185941732 -3.5 L 111.22822185941732 -0.5 L 90.89536092970866 -0.5 Z"/><text text-anchor="middle" pointer-events="none" font-size="8px" fill="#000000" x="68.11411092970866" y="3" font-family="sans-serif">ACTED_IN</text></g><g class="relationship" transform="translate(101.43891107168 -74.26474992613795) rotate(410.6413857907037)"><path class="outline" fill="#A5ABB6" stroke="none" d="M 25 0.5 L 31.41846726448795 0.5 L 31.41846726448795 -0.5 L 25 -0.5 Z M 76.98096726448796 0.5 L 83.3994345289759 0.5 L 83.3994345289759 3.5 L 90.3994345289759 0 L 83.3994345289759 -3.5 L 83.3994345289759 -0.5 L 76.98096726448796 -0.5 Z"/><text text-anchor="middle" pointer-events="none" font-size="8px" fill="#000000" x="54.19971726448795" y="3" font-family="sans-serif">ACTED_IN</text></g><g class="relationship" transform="translate(47.71429236742104 90.50534965319214) rotate(309.6592061688737)"><path class="outline" fill="#A5ABB6" stroke="none" d="M 25 0.5 L 26.38479913735614 0.5 L 26.38479913735614 -0.5 L 25 -0.5 Z M 71.94729913735614 0.5 L 73.33209827471228 0.5 L 73.33209827471228 3.5 L 80.33209827471228 0 L 73.33209827471228 -3.5 L 73.33209827471228 -0.5 L 71.94729913735614 -0.5 Z"/><text text-anchor="middle" pointer-events="none" font-size="8px" fill="#000000" x="49.16604913735614" y="3" font-family="sans-serif">ACTED_IN</text></g><g class="relationship" transform="translate(47.71429236742104 90.50534965319214) rotate(214.75458047875827)"><path class="outline" fill="#A5ABB6" stroke="none" d="M 25 0.5 L 35.401845224650714 0.5 L 35.401845224650714 -0.5 L 25 -0.5 Z M 80.96434522465071 0.5 L 91.36619044930143 0.5 L 91.36619044930143 3.5 L 98.36619044930143 0 L 91.36619044930143 -3.5 L 91.36619044930143 -0.5 L 80.96434522465071 -0.5 Z"/><text text-anchor="middle" pointer-events="none" font-size="8px" fill="#000000" x="58.183095224650714" y="3" transform="rotate(180 58.183095224650714 0)" font-family="sans-serif">ACTED_IN</text></g><g class="relationship" transform="translate(47.71429236742104 90.50534965319214) rotate(529.3904577426404)"><path class="outline" fill="#A5ABB6" stroke="none" d="M 25 0.5 L 35.70512946483981 0.5 L 35.70512946483981 -0.5 L 25 -0.5 Z M 81.26762946483981 0.5 L 91.97275892967961 0.5 L 91.97275892967961 3.5 L 98.97275892967961 0 L 91.97275892967961 -3.5 L 91.97275892967961 -0.5 L 81.26762946483981 -0.5 Z"/><text text-anchor="middle" pointer-events="none" font-size="8px" fill="#000000" x="58.48637946483981" y="3" transform="rotate(180 58.48637946483981 0)" font-family="sans-serif">ACTED_IN</text></g><g class="relationship" transform="translate(47.71429236742104 90.50534965319214) rotate(487.0702851782797)"><path class="outline" fill="#A5ABB6" stroke="none" d="M 25 0.5 L 36.602827874342964 0.5 L 36.602827874342964 -0.5 L 25 -0.5 Z M 82.16532787434296 0.5 L 93.76815574868593 0.5 L 93.76815574868593 3.5 L 100.76815574868593 0 L 93.76815574868593 -3.5 L 93.76815574868593 -0.5 L 82.16532787434296 -0.5 Z"/><text text-anchor="middle" pointer-events="none" font-size="8px" fill="#000000" x="59.384077874342964" y="3" transform="rotate(180 59.384077874342964 0)" font-family="sans-serif">ACTED_IN</text></g><g class="relationship" transform="translate(47.71429236742104 90.50534965319214) rotate(445.64576726639564)"><path class="outline" fill="#A5ABB6" stroke="none" d="M 25 0.5 L 36.34498377714526 0.5 L 36.34498377714526 -0.5 L 25 -0.5 Z M 81.90748377714526 0.5 L 93.25246755429052 0.5 L 93.25246755429052 3.5 L 100.25246755429052 0 L 93.25246755429052 -3.5 L 93.25246755429052 -0.5 L 81.90748377714526 -0.5 Z"/><text text-anchor="middle" pointer-events="none" font-size="8px" fill="#000000" x="59.12623377714526" y="3" font-family="sans-serif">ACTED_IN</text></g><g class="relationship" transform="translate(47.71429236742104 90.50534965319214) rotate(343.78996520549003)"><path class="outline" fill="#A5ABB6" stroke="none" d="M 25 0.5 L 26.952469136415885 0.5 L 26.952469136415885 -0.5 L 25 -0.5 Z M 62.288406636415885 0.5 L 64.24087577283177 0.5 L 64.24087577283177 3.5 L 71.24087577283177 0 L 64.24087577283177 -3.5 L 64.24087577283177 -0.5 L 62.288406636415885 -0.5 Z"/><text text-anchor="middle" pointer-events="none" font-size="8px" fill="#000000" x="44.620437886415885" y="3" font-family="sans-serif">ACTE…</text></g><g class="relationship" transform="translate(47.71429236742104 90.50534965319214) rotate(329.23598651954126)"><path class="outline" fill="#A5ABB6" stroke="none" d="M 25 0.5 L 47.56402378957176 0.5 L 47.56402378957176 -0.5 L 25 -0.5 Z M 93.12652378957176 0.5 L 115.69054757914353 0.5 L 115.69054757914353 3.5 L 122.69054757914353 0 L 115.69054757914353 -3.5 L 115.69054757914353 -0.5 L 93.12652378957176 -0.5 Z"/><text text-anchor="middle" pointer-events="none" font-size="8px" fill="#000000" x="70.34527378957176" y="3" font-family="sans-serif">ACTED_IN</text></g></g><g class="layer nodes"><g class="node" transform="translate(114.93932869008772,9.41499622955863)"><circle class="outline" cx="0" cy="0" r="25" fill="#F79767" stroke="#f36924" stroke-width="2px"/><text text-anchor="middle" pointer-events="none" font-family="sans-serif" dy="1.5625" font-size="25" fill="#FFFFFF"/><text text-anchor="middle" pointer-events="none" font-family="sans-serif" dy="1.5625" font-size="25" fill="#FFFFFF"/><text text-anchor="middle" pointer-events="none" x="0" y="0" font-size="10px" fill="#FFFFFF" font-family="sans-serif"> The</text><text text-anchor="middle" pointer-events="none" x="0" y="10" font-size="10px" fill="#FFFFFF" font-family="sans-serif"> Matrix</text></g><g class="node" transform="translate(226.07158080294263,104.50672656522678)"><circle class="outline" cx="0" cy="0" r="25" fill="#57C7E3" stroke="#23b3d7" stroke-width="2px"/><text text-anchor="middle" pointer-events="none" font-family="sans-serif" dy="1.5625" font-size="25" fill="#2A2C34"/><text text-anchor="middle" pointer-events="none" font-family="sans-serif" dy="1.5625" font-size="25" fill="#2A2C34"/><text text-anchor="middle" pointer-events="none" x="0" y="0" font-size="10px" fill="#2A2C34" font-family="sans-serif"> Hugo</text><text text-anchor="middle" pointer-events="none" x="0" y="10" font-size="10px" fill="#2A2C34" font-family="sans-serif"> Weaving</text></g><g class="node" transform="translate(260.8411689689224,220.01943532041065)"><circle class="outline" cx="0" cy="0" r="25" fill="#F79767" stroke="#f36924" stroke-width="2px"/><text text-anchor="middle" pointer-events="none" font-family="sans-serif" dy="1.5625" font-size="25" fill="#FFFFFF"/><text text-anchor="middle" pointer-events="none" font-family="sans-serif" dy="1.5625" font-size="25" fill="#FFFFFF"/><text text-anchor="middle" pointer-events="none" x="0" y="0" font-size="10px" fill="#FFFFFF" font-family="sans-serif"> Cloud</text><text text-anchor="middle" pointer-events="none" x="0" y="10" font-size="10px" fill="#FFFFFF" font-family="sans-serif"> Atlas</text></g><g class="node" transform="translate(338.6602681199433,127.8596399482098)"><circle class="outline" cx="0" cy="0" r="25" fill="#F79767" stroke="#f36924" stroke-width="2px"/><text text-anchor="middle" pointer-events="none" font-family="sans-serif" dy="1.5625" font-size="25" fill="#FFFFFF"/><text text-anchor="middle" pointer-events="none" font-family="sans-serif" dy="1.5625" font-size="25" fill="#FFFFFF"/><text text-anchor="middle" pointer-events="none" x="0" y="0" font-size="10px" fill="#FFFFFF" font-family="sans-serif"> V for</text><text text-anchor="middle" pointer-events="none" x="0" y="10" font-size="10px" fill="#FFFFFF" font-family="sans-serif"> Vendetta</text></g><g class="node" transform="translate(140.12909368318103,63.63881531602385)"><circle class="outline" cx="0" cy="0" r="25" fill="#F79767" stroke="#f36924" stroke-width="2px"/><text text-anchor="middle" pointer-events="none" font-family="sans-serif" dy="1.5625" font-size="25" fill="#FFFFFF"/><text text-anchor="middle" pointer-events="none" font-family="sans-serif" dy="1.5625" font-size="25" fill="#FFFFFF"/><text text-anchor="middle" pointer-events="none" font-family="sans-serif" dy="1.5625" font-size="25" fill="#FFFFFF"/><text text-anchor="middle" pointer-events="none" x="0" y="-5" font-size="10px" fill="#FFFFFF" font-family="sans-serif"> The</text><text text-anchor="middle" pointer-events="none" x="0" y="5" font-size="10px" fill="#FFFFFF" font-family="sans-serif"> Matrix</text><text text-anchor="middle" pointer-events="none" x="0" y="15" font-size="10px" fill="#FFFFFF" font-family="sans-serif"> Revol…</text></g><g class="node" transform="translate(174.62202296752628,14.961152270743424)"><circle class="outline" cx="0" cy="0" r="25" fill="#F79767" stroke="#f36924" stroke-width="2px"/><text text-anchor="middle" pointer-events="none" font-family="sans-serif" dy="1.5625" font-size="25" fill="#FFFFFF"/><text text-anchor="middle" pointer-events="none" font-family="sans-serif" dy="1.5625" font-size="25" fill="#FFFFFF"/><text text-anchor="middle" pointer-events="none" font-family="sans-serif" dy="1.5625" font-size="25" fill="#FFFFFF"/><text text-anchor="middle" pointer-events="none" x="0" y="-5" font-size="10px" fill="#FFFFFF" font-family="sans-serif"> The</text><text text-anchor="middle" pointer-events="none" x="0" y="5" font-size="10px" fill="#FFFFFF" font-family="sans-serif"> Matrix</text><text text-anchor="middle" pointer-events="none" x="0" y="15" font-size="10px" fill="#FFFFFF" font-family="sans-serif"> Reloa…</text></g><g class="node" transform="translate(202.68357767506697,-65.06182497962955)"><circle class="outline" cx="0" cy="0" r="25" fill="#57C7E3" stroke="#23b3d7" stroke-width="2px"/><text text-anchor="middle" pointer-events="none" font-family="sans-serif" dy="1.5625" font-size="25" fill="#2A2C34"/><text text-anchor="middle" pointer-events="none" font-family="sans-serif" dy="1.5625" font-size="25" fill="#2A2C34"/><text text-anchor="middle" pointer-events="none" x="0" y="0" font-size="10px" fill="#2A2C34" font-family="sans-serif"> Laurence</text><text text-anchor="middle" pointer-events="none" x="0" y="10" font-size="10px" fill="#2A2C34" font-family="sans-serif"> Fishbur…</text></g><g class="node" transform="translate(101.43891107168,-74.26474992613795)"><circle class="outline" cx="0" cy="0" r="25" fill="#57C7E3" stroke="#23b3d7" stroke-width="2px"/><text text-anchor="middle" pointer-events="none" font-family="sans-serif" dy="1.5625" font-size="25" fill="#2A2C34"/><text text-anchor="middle" pointer-events="none" x="0" y="5" font-size="10px" fill="#2A2C34" font-family="sans-serif"> Carrie-A…</text></g><g class="node" transform="translate(47.71429236742104,90.50534965319214)"><circle class="outline" cx="0" cy="0" r="25" fill="#57C7E3" stroke="#23b3d7" stroke-width="2px"/><text text-anchor="middle" pointer-events="none" font-family="sans-serif" dy="1.5625" font-size="25" fill="#2A2C34"/><text text-anchor="middle" pointer-events="none" font-family="sans-serif" dy="1.5625" font-size="25" fill="#2A2C34"/><text text-anchor="middle" pointer-events="none" x="0" y="0" font-size="10px" fill="#2A2C34" font-family="sans-serif"> Keanu</text><text text-anchor="middle" pointer-events="none" x="0" y="10" font-size="10px" fill="#2A2C34" font-family="sans-serif"> Reeves</text></g><g class="node" transform="translate(-53.64353837778931,20.178917263950307)"><circle class="outline" cx="0" cy="0" r="25" fill="#F79767" stroke="#f36924" stroke-width="2px"/><text text-anchor="middle" pointer-events="none" font-family="sans-serif" dy="1.5625" font-size="25" fill="#FFFFFF"/><text text-anchor="middle" pointer-events="none" font-family="sans-serif" dy="1.5625" font-size="25" fill="#FFFFFF"/><text text-anchor="middle" pointer-events="none" x="0" y="0" font-size="10px" fill="#FFFFFF" font-family="sans-serif"> The</text><text text-anchor="middle" pointer-events="none" x="0" y="10" font-size="10px" fill="#FFFFFF" font-family="sans-serif"> Replac…</text></g><g class="node" transform="translate(-74.13911500189744,113.330600344551)"><circle class="outline" cx="0" cy="0" r="25" fill="#F79767" stroke="#f36924" stroke-width="2px"/><text text-anchor="middle" pointer-events="none" font-family="sans-serif" dy="1.5625" font-size="25" fill="#FFFFFF"/><text text-anchor="middle" pointer-events="none" font-family="sans-serif" dy="1.5625" font-size="25" fill="#FFFFFF"/><text text-anchor="middle" pointer-events="none" x="0" y="0" font-size="10px" fill="#FFFFFF" font-family="sans-serif"> Johnny</text><text text-anchor="middle" pointer-events="none" x="0" y="10" font-size="10px" fill="#FFFFFF" font-family="sans-serif"> Mnemo…</text></g><g class="node" transform="translate(-28.098030321558973,190.85534082871587)"><circle class="outline" cx="0" cy="0" r="25" fill="#F79767" stroke="#f36924" stroke-width="2px"/><text text-anchor="middle" pointer-events="none" font-family="sans-serif" dy="1.5625" font-size="25" fill="#FFFFFF"/><text text-anchor="middle" pointer-events="none" x="0" y="5" font-size="10px" fill="#FFFFFF" font-family="sans-serif"> Somethi…</text></g><g class="node" transform="translate(57.223781412345716,215.39630307473928)"><circle class="outline" cx="0" cy="0" r="25" fill="#F79767" stroke="#f36924" stroke-width="2px"/><text text-anchor="middle" pointer-events="none" font-family="sans-serif" dy="1.5625" font-size="25" fill="#FFFFFF"/><text text-anchor="middle" pointer-events="none" font-family="sans-serif" dy="1.5625" font-size="25" fill="#FFFFFF"/><text text-anchor="middle" pointer-events="none" font-family="sans-serif" dy="1.5625" font-size="25" fill="#FFFFFF"/><text text-anchor="middle" pointer-events="none" x="0" y="-5" font-size="10px" fill="#FFFFFF" font-family="sans-serif"> The</text><text text-anchor="middle" pointer-events="none" x="0" y="5" font-size="10px" fill="#FFFFFF" font-family="sans-serif"> Devil's</text><text text-anchor="middle" pointer-events="none" x="0" y="15" font-size="10px" fill="#FFFFFF" font-family="sans-serif"> Advoc…</text></g></g></svg>